<mxfile host="app.diagrams.net" modified="2023-11-18T18:56:23.122Z" agent="Mozilla/5.0 (Windows NT 10.0; Win64; x64) AppleWebKit/537.36 (KHTML, like Gecko) Chrome/119.0.0.0 Safari/537.36 Edg/119.0.0.0" etag="8cRM0hO2X7d4MOiqJthx" version="22.1.3" type="google">
  <diagram name="Page-1" id="2YBvvXClWsGukQMizWep">
    <mxGraphModel grid="1" page="1" gridSize="10" guides="1" tooltips="1" connect="1" arrows="1" fold="1" pageScale="1" pageWidth="850" pageHeight="1100" math="0" shadow="0">
      <root>
        <mxCell id="0" />
        <mxCell id="1" parent="0" />
        <mxCell id="zjelUZG12Z46wePHj5Ng-1" value="&lt;b&gt;sd &lt;/b&gt;U6 Set Vehicle Info" style="shape=umlFrame;whiteSpace=wrap;html=1;pointerEvents=0;width=140;height=20;" vertex="1" parent="1">
          <mxGeometry width="480" height="470" as="geometry" />
        </mxCell>
        <mxCell id="EYLsLjpwyRaD3ZhXlNDz-4" value="" style="edgeStyle=orthogonalEdgeStyle;rounded=0;orthogonalLoop=1;jettySize=auto;html=1;" edge="1" parent="1">
          <mxGeometry relative="1" as="geometry" />
        </mxCell>
        <mxCell id="EYLsLjpwyRaD3ZhXlNDz-3" value="" style="edgeStyle=orthogonalEdgeStyle;rounded=0;orthogonalLoop=1;jettySize=auto;html=1;" edge="1" parent="1">
          <mxGeometry relative="1" as="geometry" />
        </mxCell>
        <mxCell id="zjelUZG12Z46wePHj5Ng-4" value="Guest" style="shape=umlLifeline;perimeter=lifelinePerimeter;whiteSpace=wrap;html=1;container=1;dropTarget=0;collapsible=0;recursiveResize=0;outlineConnect=0;portConstraint=eastwest;newEdgeStyle={&quot;curved&quot;:0,&quot;rounded&quot;:0};participant=umlActor;" vertex="1" parent="1">
          <mxGeometry x="40" y="40" width="20" height="420" as="geometry" />
        </mxCell>
        <mxCell id="zjelUZG12Z46wePHj5Ng-8" value="" style="html=1;points=[[0,0,0,0,5],[0,1,0,0,-5],[1,0,0,0,5],[1,1,0,0,-5]];perimeter=orthogonalPerimeter;outlineConnect=0;targetShapes=umlLifeline;portConstraint=eastwest;newEdgeStyle={&quot;curved&quot;:0,&quot;rounded&quot;:0};" vertex="1" parent="zjelUZG12Z46wePHj5Ng-4">
          <mxGeometry x="5" y="70" width="10" height="310" as="geometry" />
        </mxCell>
        <mxCell id="zjelUZG12Z46wePHj5Ng-5" value="SettingsUI&lt;span style=&quot;white-space: pre;&quot;&gt;&#x9;&lt;/span&gt;" style="shape=umlLifeline;perimeter=lifelinePerimeter;whiteSpace=wrap;html=1;container=1;dropTarget=0;collapsible=0;recursiveResize=0;outlineConnect=0;portConstraint=eastwest;newEdgeStyle={&quot;curved&quot;:0,&quot;rounded&quot;:0};participant=umlBoundary;" vertex="1" parent="1">
          <mxGeometry x="140" y="40" width="50" height="420" as="geometry" />
        </mxCell>
        <mxCell id="zjelUZG12Z46wePHj5Ng-9" value="" style="html=1;points=[[0,0,0,0,5],[0,1,0,0,-5],[1,0,0,0,5],[1,1,0,0,-5]];perimeter=orthogonalPerimeter;outlineConnect=0;targetShapes=umlLifeline;portConstraint=eastwest;newEdgeStyle={&quot;curved&quot;:0,&quot;rounded&quot;:0};" vertex="1" parent="zjelUZG12Z46wePHj5Ng-5">
          <mxGeometry x="20" y="90" width="10" height="60" as="geometry" />
        </mxCell>
        <mxCell id="EYLsLjpwyRaD3ZhXlNDz-8" value="&lt;font style=&quot;font-size: 8px;&quot;&gt;showDropdownMenu()&lt;/font&gt;" style="html=1;verticalAlign=bottom;endArrow=block;curved=0;rounded=0;" edge="1" parent="zjelUZG12Z46wePHj5Ng-5">
          <mxGeometry x="0.2" y="-40" width="80" relative="1" as="geometry">
            <mxPoint x="30" y="106" as="sourcePoint" />
            <mxPoint x="30" y="126" as="targetPoint" />
            <Array as="points">
              <mxPoint x="70" y="106" />
              <mxPoint x="70" y="126" />
            </Array>
            <mxPoint x="40" y="40" as="offset" />
          </mxGeometry>
        </mxCell>
        <mxCell id="HH5f2FHloIBflHVuTEz6-1" value="" style="html=1;points=[[0,0,0,0,5],[0,1,0,0,-5],[1,0,0,0,5],[1,1,0,0,-5]];perimeter=orthogonalPerimeter;outlineConnect=0;targetShapes=umlLifeline;portConstraint=eastwest;newEdgeStyle={&quot;curved&quot;:0,&quot;rounded&quot;:0};" vertex="1" parent="zjelUZG12Z46wePHj5Ng-5">
          <mxGeometry x="20" y="50" width="10" height="9" as="geometry" />
        </mxCell>
        <mxCell id="HH5f2FHloIBflHVuTEz6-4" value="" style="html=1;points=[[0,0,0,0,5],[0,1,0,0,-5],[1,0,0,0,5],[1,1,0,0,-5]];perimeter=orthogonalPerimeter;outlineConnect=0;targetShapes=umlLifeline;portConstraint=eastwest;newEdgeStyle={&quot;curved&quot;:0,&quot;rounded&quot;:0};" vertex="1" parent="zjelUZG12Z46wePHj5Ng-5">
          <mxGeometry x="20" y="190" width="10" height="30" as="geometry" />
        </mxCell>
        <mxCell id="HH5f2FHloIBflHVuTEz6-11" value="" style="html=1;points=[[0,0,0,0,5],[0,1,0,0,-5],[1,0,0,0,5],[1,1,0,0,-5]];perimeter=orthogonalPerimeter;outlineConnect=0;targetShapes=umlLifeline;portConstraint=eastwest;newEdgeStyle={&quot;curved&quot;:0,&quot;rounded&quot;:0};" vertex="1" parent="zjelUZG12Z46wePHj5Ng-5">
          <mxGeometry x="20" y="297" width="10" height="73" as="geometry" />
        </mxCell>
        <mxCell id="HH5f2FHloIBflHVuTEz6-13" value="" style="html=1;points=[[0,0,0,0,5],[0,1,0,0,-5],[1,0,0,0,5],[1,1,0,0,-5]];perimeter=orthogonalPerimeter;outlineConnect=0;targetShapes=umlLifeline;portConstraint=eastwest;newEdgeStyle={&quot;curved&quot;:0,&quot;rounded&quot;:0};" vertex="1" parent="zjelUZG12Z46wePHj5Ng-5">
          <mxGeometry x="25" y="340" width="10" height="20" as="geometry" />
        </mxCell>
        <mxCell id="HH5f2FHloIBflHVuTEz6-14" value="recompose()" style="html=1;align=left;spacingLeft=2;endArrow=block;rounded=0;edgeStyle=orthogonalEdgeStyle;curved=0;rounded=0;" edge="1" parent="zjelUZG12Z46wePHj5Ng-5" target="HH5f2FHloIBflHVuTEz6-13">
          <mxGeometry relative="1" as="geometry">
            <mxPoint x="30" y="320" as="sourcePoint" />
            <Array as="points">
              <mxPoint x="60" y="350" />
            </Array>
          </mxGeometry>
        </mxCell>
        <mxCell id="zjelUZG12Z46wePHj5Ng-6" value="SettingsViewModel" style="shape=umlLifeline;perimeter=lifelinePerimeter;whiteSpace=wrap;html=1;container=1;dropTarget=0;collapsible=0;recursiveResize=0;outlineConnect=0;portConstraint=eastwest;newEdgeStyle={&quot;curved&quot;:0,&quot;rounded&quot;:0};participant=umlControl;" vertex="1" parent="1">
          <mxGeometry x="290" y="40" width="40" height="420" as="geometry" />
        </mxCell>
        <mxCell id="zjelUZG12Z46wePHj5Ng-10" value="" style="html=1;points=[[0,0,0,0,5],[0,1,0,0,-5],[1,0,0,0,5],[1,1,0,0,-5]];perimeter=orthogonalPerimeter;outlineConnect=0;targetShapes=umlLifeline;portConstraint=eastwest;newEdgeStyle={&quot;curved&quot;:0,&quot;rounded&quot;:0};" vertex="1" parent="zjelUZG12Z46wePHj5Ng-6">
          <mxGeometry x="15" y="200" width="10" height="80" as="geometry" />
        </mxCell>
        <mxCell id="HH5f2FHloIBflHVuTEz6-3" value="" style="html=1;points=[[0,0,0,0,5],[0,1,0,0,-5],[1,0,0,0,5],[1,1,0,0,-5]];perimeter=orthogonalPerimeter;outlineConnect=0;targetShapes=umlLifeline;portConstraint=eastwest;newEdgeStyle={&quot;curved&quot;:0,&quot;rounded&quot;:0};" vertex="1" parent="zjelUZG12Z46wePHj5Ng-6">
          <mxGeometry x="15" y="51" width="10" height="9" as="geometry" />
        </mxCell>
        <mxCell id="HH5f2FHloIBflHVuTEz6-7" value="" style="html=1;points=[[0,0,0,0,5],[0,1,0,0,-5],[1,0,0,0,5],[1,1,0,0,-5]];perimeter=orthogonalPerimeter;outlineConnect=0;targetShapes=umlLifeline;portConstraint=eastwest;newEdgeStyle={&quot;curved&quot;:0,&quot;rounded&quot;:0};" vertex="1" parent="zjelUZG12Z46wePHj5Ng-6">
          <mxGeometry x="20" y="245" width="10" height="15" as="geometry" />
        </mxCell>
        <mxCell id="HH5f2FHloIBflHVuTEz6-8" value="&lt;font style=&quot;font-size: 8px;&quot;&gt;set(vehicle, vehicleType)&lt;/font&gt;" style="html=1;align=left;spacingLeft=2;endArrow=block;rounded=0;edgeStyle=orthogonalEdgeStyle;curved=0;rounded=0;" edge="1" parent="zjelUZG12Z46wePHj5Ng-6" target="HH5f2FHloIBflHVuTEz6-7">
          <mxGeometry relative="1" as="geometry">
            <mxPoint x="25" y="225" as="sourcePoint" />
            <Array as="points">
              <mxPoint x="55" y="255" />
            </Array>
          </mxGeometry>
        </mxCell>
        <mxCell id="HH5f2FHloIBflHVuTEz6-10" value="" style="html=1;points=[[0,0,0,0,5],[0,1,0,0,-5],[1,0,0,0,5],[1,1,0,0,-5]];perimeter=orthogonalPerimeter;outlineConnect=0;targetShapes=umlLifeline;portConstraint=eastwest;newEdgeStyle={&quot;curved&quot;:0,&quot;rounded&quot;:0};" vertex="1" parent="zjelUZG12Z46wePHj5Ng-6">
          <mxGeometry x="15" y="300" width="10" height="9" as="geometry" />
        </mxCell>
        <mxCell id="zjelUZG12Z46wePHj5Ng-11" value="&lt;font style=&quot;font-size: 8px;&quot;&gt;clicks to change vehicle type&lt;/font&gt;" style="html=1;verticalAlign=bottom;endArrow=block;curved=0;rounded=0;" edge="1" parent="1" source="zjelUZG12Z46wePHj5Ng-8" target="zjelUZG12Z46wePHj5Ng-9">
          <mxGeometry width="80" relative="1" as="geometry">
            <mxPoint x="70" y="140" as="sourcePoint" />
            <mxPoint x="150" y="140" as="targetPoint" />
            <Array as="points">
              <mxPoint x="140" y="140" />
            </Array>
          </mxGeometry>
        </mxCell>
        <mxCell id="EYLsLjpwyRaD3ZhXlNDz-6" value="UserPrefsDb" style="shape=umlLifeline;perimeter=lifelinePerimeter;whiteSpace=wrap;html=1;container=1;dropTarget=0;collapsible=0;recursiveResize=0;outlineConnect=0;portConstraint=eastwest;newEdgeStyle={&quot;curved&quot;:0,&quot;rounded&quot;:0};participant=umlEntity;" vertex="1" parent="1">
          <mxGeometry x="420" y="40" width="40" height="420" as="geometry" />
        </mxCell>
        <mxCell id="HH5f2FHloIBflHVuTEz6-9" value="" style="html=1;points=[[0,0,0,0,5],[0,1,0,0,-5],[1,0,0,0,5],[1,1,0,0,-5]];perimeter=orthogonalPerimeter;outlineConnect=0;targetShapes=umlLifeline;portConstraint=eastwest;newEdgeStyle={&quot;curved&quot;:0,&quot;rounded&quot;:0};" vertex="1" parent="EYLsLjpwyRaD3ZhXlNDz-6">
          <mxGeometry x="14.5" y="272.5" width="10" height="9" as="geometry" />
        </mxCell>
        <mxCell id="zjelUZG12Z46wePHj5Ng-12" value="&lt;font style=&quot;font-size: 8px;&quot;&gt;editSelectedOptionText(vehicleType)&lt;/font&gt;" style="html=1;verticalAlign=bottom;endArrow=block;curved=0;rounded=0;" edge="1" parent="1">
          <mxGeometry width="80" relative="1" as="geometry">
            <mxPoint x="170" y="248" as="sourcePoint" />
            <mxPoint x="305" y="248" as="targetPoint" />
          </mxGeometry>
        </mxCell>
        <mxCell id="zjelUZG12Z46wePHj5Ng-13" value="&lt;font style=&quot;font-size: 8px;&quot;&gt;chooses vehicle type&lt;/font&gt;" style="html=1;verticalAlign=bottom;endArrow=block;curved=0;rounded=0;" edge="1" parent="1" source="zjelUZG12Z46wePHj5Ng-8" target="HH5f2FHloIBflHVuTEz6-4">
          <mxGeometry width="80" relative="1" as="geometry">
            <mxPoint x="60" y="234.64" as="sourcePoint" />
            <mxPoint x="140" y="234.64" as="targetPoint" />
            <Array as="points">
              <mxPoint x="130" y="240" />
            </Array>
          </mxGeometry>
        </mxCell>
        <mxCell id="zjelUZG12Z46wePHj5Ng-14" value="&lt;font style=&quot;font-size: 8px;&quot;&gt;show dropdown menu&lt;/font&gt;" style="html=1;verticalAlign=bottom;endArrow=open;dashed=1;endSize=8;curved=0;rounded=0;" edge="1" parent="1">
          <mxGeometry relative="1" as="geometry">
            <mxPoint x="160" y="180" as="sourcePoint" />
            <mxPoint x="55" y="180" as="targetPoint" />
          </mxGeometry>
        </mxCell>
        <mxCell id="EYLsLjpwyRaD3ZhXlNDz-9" value="&lt;font style=&quot;font-size: 8px;&quot;&gt;updateVehicleType()&amp;nbsp;&lt;/font&gt;" style="html=1;verticalAlign=bottom;endArrow=block;curved=0;rounded=0;" edge="1" parent="1" target="HH5f2FHloIBflHVuTEz6-9">
          <mxGeometry width="80" relative="1" as="geometry">
            <mxPoint x="315" y="317" as="sourcePoint" />
            <mxPoint x="439.5" y="317" as="targetPoint" />
          </mxGeometry>
        </mxCell>
        <mxCell id="zjelUZG12Z46wePHj5Ng-17" value="&lt;font style=&quot;font-size: 8px;&quot;&gt;show vehicle type chosen&lt;/font&gt;" style="html=1;verticalAlign=bottom;endArrow=open;dashed=1;endSize=8;curved=0;rounded=0;exitX=0;exitY=1;exitDx=0;exitDy=-5;exitPerimeter=0;" edge="1" parent="1" source="HH5f2FHloIBflHVuTEz6-11" target="zjelUZG12Z46wePHj5Ng-8">
          <mxGeometry relative="1" as="geometry">
            <mxPoint x="150" y="300" as="sourcePoint" />
            <mxPoint x="70" y="300" as="targetPoint" />
            <Array as="points" />
          </mxGeometry>
        </mxCell>
        <mxCell id="HH5f2FHloIBflHVuTEz6-2" value="vehicle.collectAsState()" style="html=1;verticalAlign=bottom;endArrow=block;curved=0;rounded=0;" edge="1" parent="1" source="HH5f2FHloIBflHVuTEz6-1" target="HH5f2FHloIBflHVuTEz6-3">
          <mxGeometry width="80" relative="1" as="geometry">
            <mxPoint x="180" y="100" as="sourcePoint" />
            <mxPoint x="270" y="100" as="targetPoint" />
          </mxGeometry>
        </mxCell>
        <mxCell id="HH5f2FHloIBflHVuTEz6-12" value="vehicle.notify()" style="html=1;verticalAlign=bottom;endArrow=open;dashed=1;endSize=8;curved=0;rounded=0;exitX=0;exitY=0;exitDx=0;exitDy=5;exitPerimeter=0;" edge="1" parent="1" source="HH5f2FHloIBflHVuTEz6-10" target="HH5f2FHloIBflHVuTEz6-11">
          <mxGeometry relative="1" as="geometry">
            <mxPoint x="280" y="290" as="sourcePoint" />
            <mxPoint x="200" y="290" as="targetPoint" />
          </mxGeometry>
        </mxCell>
      </root>
    </mxGraphModel>
  </diagram>
</mxfile>
